
<svg width="34" height="24" viewBox="0 0 34 24" fill="none" xmlns="http://www.w3.org/2000/svg">
<path d="M0 4C0 1.79086 1.79086 0 4 0H30C32.2091 0 34 1.79086 34 4V20C34 22.2091 32.2091 24 30 24H4C1.79086 24 0 22.2091 0 20V4Z" fill="#00D632"/>
<path fill-rule="evenodd" clip-rule="evenodd" d="M17.4845 8.17639C18.6245 8.17639 19.7171 8.63799 20.431 9.27162C20.6115 9.43191 20.8818 9.43093 21.0513 9.25922L21.9007 8.39772C22.0799 8.21589 22.0734 7.91817 21.8798 7.75201C21.3098 7.26201 20.5446 6.78017 19.6028 6.47168L19.8692 5.2031C19.927 4.9266 19.7164 4.66675 19.4337 4.66675H17.7923C17.5824 4.66675 17.4009 4.81365 17.3572 5.01899L17.1172 6.14719C14.9353 6.25622 13.0859 7.34493 13.0859 9.57881C13.0859 11.5127 14.616 12.3415 16.2309 12.9151C17.761 13.4887 18.5683 13.7015 18.5683 14.5088C18.5683 15.3377 17.761 15.8264 16.5708 15.8264C15.4857 15.8264 14.349 15.4683 13.4669 14.5986C13.2939 14.4279 13.0171 14.4266 12.844 14.5973L11.9313 15.4976C11.7527 15.6736 11.7544 15.9628 11.9342 16.1371C12.6459 16.8279 13.5469 17.328 14.5752 17.6081L14.3248 18.7833C14.2664 19.0589 14.475 19.3187 14.757 19.321L16.401 19.3334C16.6126 19.335 16.7963 19.1872 16.8394 18.9799L17.0768 17.85C19.6893 17.6888 21.2883 16.2687 21.2883 14.1902C21.2883 12.2779 19.6949 11.4702 17.761 10.8115C16.656 10.4073 15.6995 10.1315 15.6995 9.30296C15.6995 8.49566 16.5923 8.17639 17.4845 8.17639Z" fill="white"/>
</svg>