
<svg width="34" height="24" viewBox="0 0 34 24" fill="none" xmlns="http://www.w3.org/2000/svg">
<path d="M0 4C0 1.79086 1.79086 0 4 0H30C32.2091 0 34 1.79086 34 4V20C34 22.2091 32.2091 24 30 24H4C1.79086 24 0 22.2091 0 20V4Z" fill="white"/>
<path d="M4 1H30V-1H4V1ZM33 4V20H35V4H33ZM30 23H4V25H30V23ZM1 20V4H-1V20H1ZM4 23C2.34315 23 1 21.6569 1 20H-1C-1 22.7614 1.23858 25 4 25V23ZM33 20C33 21.6569 31.6569 23 30 23V25C32.7614 25 35 22.7614 35 20H33ZM30 1C31.6569 1 33 2.34315 33 4H35C35 1.23858 32.7614 -1 30 -1V1ZM4 -1C1.23858 -1 -1 1.23858 -1 4H1C1 2.34315 2.34315 1 4 1V-1Z" fill="#EAEAEA"/>
<path fill-rule="evenodd" clip-rule="evenodd" d="M17.179 16.8295C15.9949 17.8275 14.459 18.43 12.7807 18.43C9.03582 18.43 6 15.4303 6 11.73C6 8.02972 9.03582 5.03003 12.7807 5.03003C14.459 5.03003 15.9949 5.63253 17.179 6.63057C18.363 5.63253 19.8989 5.03003 21.5773 5.03003C25.3221 5.03003 28.358 8.02972 28.358 11.73C28.358 15.4303 25.3221 18.43 21.5773 18.43C19.8989 18.43 18.363 17.8275 17.179 16.8295Z" fill="#ED0006"/>
<path fill-rule="evenodd" clip-rule="evenodd" d="M17.179 16.8295C18.6369 15.6006 19.5614 13.772 19.5614 11.73C19.5614 9.68807 18.6369 7.85947 17.179 6.63057C18.363 5.63253 19.8989 5.03003 21.5772 5.03003C25.3221 5.03003 28.3579 8.02972 28.3579 11.73C28.3579 15.4303 25.3221 18.43 21.5772 18.43C19.8989 18.43 18.363 17.8275 17.179 16.8295Z" fill="#F9A000"/>
<path fill-rule="evenodd" clip-rule="evenodd" d="M17.179 16.8295C18.6369 15.6006 19.5614 13.772 19.5614 11.7301C19.5614 9.68811 18.6369 7.85952 17.179 6.63062C15.7211 7.85952 14.7966 9.68811 14.7966 11.7301C14.7966 13.772 15.7211 15.6006 17.179 16.8295Z" fill="#FF5E00"/>
</svg>