
<svg width="34" height="22" viewBox="0 0 34 22" fill="none" xmlns="http://www.w3.org/2000/svg">
	<path d="M0.5 3.66667C0.5 1.64162 2.14162 0 4.16667 0H29.8333C31.8584 0 33.5 1.64162 33.5 3.66667V18.3333C33.5 20.3584 31.8584 22 29.8333 22H4.16667C2.14162 22 0.5 20.3584 0.5 18.3333V3.66667Z" fill="white"/>
	<path d="M4.16667 0.458333H29.8333C31.6052 0.458333 33.0417 1.89475 33.0417 3.66667V18.3333C33.0417 20.1052 31.6052 21.5417 29.8333 21.5417H4.16667C2.39475 21.5417 0.958333 20.1052 0.958333 18.3333V3.66667C0.958333 1.89475 2.39475 0.458333 4.16667 0.458333Z" stroke="black" stroke-opacity="0.05" stroke-width="0.916667"/>
	<path fill-rule="evenodd" clip-rule="evenodd" d="M19.7086 9.23182C19.7036 9.60631 20.1653 9.85296 20.9191 10.2227C22.1632 10.7932 22.7378 11.485 22.7296 12.3943C22.7129 14.0534 21.2413 15.1249 18.9745 15.1249C18.0074 15.1148 17.0761 14.9215 16.5723 14.6984L16.875 12.9092L17.1528 13.0363C17.861 13.3347 18.3196 13.4558 19.1827 13.4558C19.8026 13.4558 20.4676 13.2111 20.4729 12.6754C20.4769 12.3254 20.1947 12.0757 19.3553 11.6839C18.5372 11.3016 17.4538 10.6609 17.4657 9.51246C17.4785 7.95891 18.9795 6.87494 21.1104 6.87494C21.9464 6.87494 22.6158 7.04871 23.0432 7.21054L22.7508 8.94291L22.5576 8.85059C22.1596 8.68861 21.6487 8.53336 20.9435 8.54438C20.0993 8.54438 19.7086 8.89958 19.7086 9.23182ZM26.7734 9.93887C26.7734 9.93887 26.0926 11.7126 25.9142 12.1731H27.7044C27.618 11.7731 27.2052 9.86523 27.2052 9.86523L27.0594 9.17611C27.0024 9.33311 26.9233 9.54045 26.8626 9.69942L26.8626 9.69949L26.8623 9.7001C26.8072 9.84463 26.7674 9.949 26.7734 9.93887ZM26.9069 7.02168H28.5733L30.3186 15.0089H28.3176C28.3176 15.0089 28.1198 14.0911 28.0553 13.8114C27.8886 13.8114 27.1926 13.8104 26.5381 13.8095L26.5363 13.8095C25.9564 13.8087 25.4097 13.808 25.2934 13.808C25.2098 14.0242 24.8394 15.0089 24.8394 15.0089H22.575L25.7777 7.68446C26.0044 7.16391 26.3907 7.02168 26.9069 7.02168ZM11.2575 7.01964L9.14611 12.47L8.9212 11.3623L8.16508 7.68947C8.03444 7.18331 7.65584 7.03235 7.18753 7.01475H3.7102L3.68262 7.18102C4.52846 7.38786 5.28488 7.68626 5.94779 8.05769L7.86499 14.9994L10.1467 14.9968L13.5417 7.01964H11.2575ZM13.0662 15.0065L14.4145 7.01386H16.571L15.2218 15.0065H13.0662Z" fill="#1434CB"/>
</svg>
